<?xml version="1.0" encoding="UTF-8"?> <svg xmlns="http://www.w3.org/2000/svg" id="a" viewBox="0 0 1001.39 216.96"><defs><style>.b{fill:#4ec1ec;}.c{fill:#41404a;}</style></defs><path class="c" d="m300.19,67.51c-11.52,10.98-17.28,25.42-17.28,43.33s5.82,32.94,17.46,44.76c11.64,11.82,26.35,17.72,44.13,17.72h69.11v-21.31h-69.11c-11.7,0-21.34-3.64-28.91-10.92-7.58-7.28-11.37-16.77-11.37-28.47s3.79-21.48,11.37-29c7.58-7.52,17.22-11.28,28.91-11.28h69.11v-21.31h-69.11c-18.02,0-32.8,5.49-44.31,16.47Z"></path><polygon class="c" points="506.44 111.19 460.42 51.03 433.03 51.03 495.34 132.5 495.34 173.32 516.46 173.32 516.46 132.85 577.16 51.03 549.58 51.03 506.44 111.19"></polygon><path class="c" d="m702.57,62.67c-9.07-7.76-20.47-11.64-34.2-11.64h-76.71v122.28h21.31v-100.98h58.8c7.04,0,12.95,2.03,17.73,6.09,4.77,4.06,7.16,9.55,7.16,16.47s-2.39,12.47-7.16,16.65c-4.78,4.18-10.68,6.27-17.73,6.27h-34.4v21.13h31c13.72,0,25.12-3.82,34.2-11.46,9.79-8.24,14.68-19.04,14.68-32.41s-4.9-24.29-14.68-32.41Z"></path><polygon class="c" points="753.78 121.93 822.11 121.93 822.11 100.63 812.25 100.63 753.78 100.63 751.55 100.63 732.47 100.63 732.47 173.32 838.11 173.32 838.11 152.01 753.78 152.01 753.78 121.93"></polygon><polygon class="c" points="732.47 72.34 753.78 72.34 812.25 72.34 838.11 72.34 838.11 51.03 732.47 51.03 732.47 72.34"></polygon><polygon class="c" points="934.71 136.23 970.77 173.5 1001.39 173.5 949.55 120.41 934.71 136.23"></polygon><polygon class="c" points="1001.39 51.03 971.67 51.03 934.96 88.63 949.76 104.21 1001.39 51.03"></polygon><polygon class="c" points="130.32 172.1 190.72 216.96 244.29 216.96 158.4 151.24 130.32 172.1"></polygon><polygon class="c" points="122.15 51.45 93.58 72.48 44.66 108.48 85.81 139.04 114.13 117.37 103.38 109.15 122.15 94.61 150.72 72.48 244.29 0 192.06 0 122.15 51.45"></polygon><polygon class="b" points="883.57 50.74 853.98 50.74 913.54 112.57 853.98 173.65 884.33 173.65 941.99 112.19 883.57 50.74"></polygon><polygon class="b" points="113.93 45.4 52.23 0 0 0 85.56 66.28 113.93 45.4"></polygon><polygon class="b" points="130.11 100.78 140.91 109.15 133.02 115.19 129.73 117.7 122.15 123.51 93.95 145.08 0 216.96 53.57 216.96 122.15 166.03 150.35 145.08 160.99 137.18 169.88 130.58 199.63 108.48 158.88 78.49 130.11 100.78"></polygon></svg> 